<?xml version="1.0" encoding="UTF-8"?>
<svg xmlns="http://www.w3.org/2000/svg" xmlns:xlink="http://www.w3.org/1999/xlink" width="32px" height="32px" viewBox="0 0 32 32" version="1.1">
<g id="surface1">
<path style="fill-rule:nonzero;fill:rgb(100%,100%,100%);fill-opacity:1;stroke-width:6;stroke-linecap:butt;stroke-linejoin:miter;stroke:rgb(35.294119%,47.843137%,47.843137%);stroke-opacity:1;stroke-miterlimit:4;" d="M 32.006836 -0.00488281 C 32.006836 -17.680664 17.675781 -32.011719 0 -32.011719 C -17.675781 -32.011719 -32.006836 -17.680664 -32.006836 -0.00488281 C -32.006836 17.670898 -17.675781 32.001953 0 32.001953 C 17.675781 32.001953 32.006836 17.670898 32.006836 -0.00488281 Z M 32.006836 -0.00488281 " transform="matrix(0.16,0,0,0.16,16,11.2)"/>
<path style="fill-rule:nonzero;fill:rgb(100%,100%,100%);fill-opacity:1;stroke-width:6;stroke-linecap:butt;stroke-linejoin:miter;stroke:rgb(35.294119%,47.843137%,47.843137%);stroke-opacity:1;stroke-miterlimit:4;" d="M 12.988281 -0.00488281 C 12.988281 -7.182617 7.177734 -12.993164 0 -12.993164 C -7.177734 -12.993164 -12.988281 -7.182617 -12.988281 -0.00488281 C -12.988281 7.172852 -7.177734 13.007812 0 13.007812 C 7.177734 13.007812 12.988281 7.172852 12.988281 -0.00488281 Z M 12.988281 -0.00488281 " transform="matrix(0.16,0,0,0.16,16,11.2)"/>
<path style=" stroke:none;fill-rule:nonzero;fill:rgb(35.294119%,47.843137%,47.843137%);fill-opacity:1;" d="M 15.519531 4.800781 L 16.480469 4.800781 C 16.65625 4.800781 16.800781 4.941406 16.800781 5.121094 L 16.800781 7.039062 C 16.800781 7.214844 16.65625 7.359375 16.480469 7.359375 L 15.519531 7.359375 C 15.34375 7.359375 15.199219 7.214844 15.199219 7.039062 L 15.199219 5.121094 C 15.199219 4.941406 15.34375 4.800781 15.519531 4.800781 Z M 15.519531 4.800781 "/>
<path style=" stroke:none;fill-rule:nonzero;fill:rgb(35.294119%,47.843137%,47.843137%);fill-opacity:1;" d="M 15.519531 15.039062 L 16.480469 15.039062 C 16.65625 15.039062 16.800781 15.183594 16.800781 15.359375 L 16.800781 17.28125 C 16.800781 17.457031 16.65625 17.601562 16.480469 17.601562 L 15.519531 17.601562 C 15.34375 17.601562 15.199219 17.457031 15.199219 17.28125 L 15.199219 15.359375 C 15.199219 15.183594 15.34375 15.039062 15.519531 15.039062 Z M 15.519531 15.039062 "/>
<path style=" stroke:none;fill-rule:nonzero;fill:rgb(35.294119%,47.843137%,47.843137%);fill-opacity:1;" d="M 9.921875 10.398438 L 11.839844 10.398438 C 12.015625 10.398438 12.160156 10.542969 12.160156 10.71875 L 12.160156 11.679688 C 12.160156 11.855469 12.015625 12 11.839844 12 L 9.921875 12 C 9.742188 12 9.601562 11.855469 9.601562 11.679688 L 9.601562 10.71875 C 9.601562 10.542969 9.742188 10.398438 9.921875 10.398438 Z M 9.921875 10.398438 "/>
<path style=" stroke:none;fill-rule:nonzero;fill:rgb(35.294119%,47.843137%,47.843137%);fill-opacity:1;" d="M 20.160156 10.398438 L 22.078125 10.398438 C 22.257812 10.398438 22.398438 10.542969 22.398438 10.71875 L 22.398438 11.679688 C 22.398438 11.855469 22.257812 12 22.078125 12 L 20.160156 12 C 19.984375 12 19.839844 11.855469 19.839844 11.679688 L 19.839844 10.71875 C 19.839844 10.542969 19.984375 10.398438 20.160156 10.398438 Z M 20.160156 10.398438 "/>
<path style=" stroke:none;fill-rule:nonzero;fill:rgb(35.294119%,47.843137%,47.843137%);fill-opacity:1;" d="M 20.1875 6.335938 L 20.863281 7.015625 C 20.988281 7.140625 20.988281 7.339844 20.863281 7.464844 L 19.507812 8.824219 C 19.382812 8.949219 19.179688 8.949219 19.054688 8.824219 L 18.375 8.144531 C 18.25 8.019531 18.25 7.816406 18.375 7.691406 L 19.734375 6.335938 C 19.859375 6.210938 20.0625 6.210938 20.1875 6.335938 Z M 20.1875 6.335938 "/>
<path style=" stroke:none;fill-rule:nonzero;fill:rgb(35.294119%,47.843137%,47.843137%);fill-opacity:1;" d="M 12.945312 13.574219 L 13.625 14.253906 C 13.75 14.378906 13.75 14.582031 13.625 14.707031 L 12.265625 16.066406 C 12.140625 16.191406 11.9375 16.191406 11.8125 16.066406 L 11.136719 15.386719 C 11.011719 15.261719 11.011719 15.058594 11.136719 14.933594 L 12.492188 13.574219 C 12.617188 13.449219 12.820312 13.449219 12.945312 13.574219 Z M 12.945312 13.574219 "/>
<path style=" stroke:none;fill-rule:nonzero;fill:rgb(35.294119%,47.843137%,47.843137%);fill-opacity:1;" d="M 12.265625 6.335938 L 13.625 7.691406 C 13.75 7.816406 13.75 8.019531 13.625 8.144531 L 12.945312 8.824219 C 12.820312 8.949219 12.617188 8.949219 12.492188 8.824219 L 11.136719 7.464844 C 11.011719 7.339844 11.011719 7.140625 11.136719 7.015625 L 11.8125 6.335938 C 11.9375 6.210938 12.140625 6.210938 12.265625 6.335938 Z M 12.265625 6.335938 "/>
<path style=" stroke:none;fill-rule:nonzero;fill:rgb(35.294119%,47.843137%,47.843137%);fill-opacity:1;" d="M 19.507812 13.574219 L 20.863281 14.933594 C 20.988281 15.058594 20.988281 15.261719 20.863281 15.386719 L 20.1875 16.066406 C 20.0625 16.191406 19.859375 16.191406 19.734375 16.066406 L 18.375 14.707031 C 18.25 14.582031 18.25 14.378906 18.375 14.253906 L 19.054688 13.574219 C 19.179688 13.449219 19.382812 13.449219 19.507812 13.574219 Z M 19.507812 13.574219 "/>
<path style="fill-rule:nonzero;fill:rgb(100%,100%,100%);fill-opacity:1;stroke-width:5;stroke-linecap:butt;stroke-linejoin:miter;stroke:rgb(22.745098%,22.745098%,22.745098%);stroke-opacity:1;stroke-miterlimit:4;" d="M 26.010742 -0.00488281 C 26.010742 -14.360352 14.365234 -26.005859 0.00976562 -26.005859 C -14.370117 -26.005859 -25.991211 -14.360352 -25.991211 -0.00488281 C -25.991211 14.350586 -14.370117 25.996094 0.00976562 25.996094 C 14.365234 25.996094 26.010742 14.350586 26.010742 -0.00488281 Z M 26.010742 -0.00488281 " transform="matrix(0.16,0,0,0.16,21.6,7.2)"/>
<path style="fill-rule:nonzero;fill:rgb(100%,100%,100%);fill-opacity:1;stroke-width:5;stroke-linecap:butt;stroke-linejoin:miter;stroke:rgb(22.745098%,22.745098%,22.745098%);stroke-opacity:1;stroke-miterlimit:4;" d="M 10.996094 -0.00488281 C 10.996094 -6.083984 6.064453 -10.991211 0.00976562 -10.991211 C -6.069336 -10.991211 -11.000977 -6.083984 -11.000977 -0.00488281 C -11.000977 6.074219 -6.069336 11.005859 0.00976562 11.005859 C 6.064453 11.005859 10.996094 6.074219 10.996094 -0.00488281 Z M 10.996094 -0.00488281 " transform="matrix(0.16,0,0,0.16,21.6,7.2)"/>
<path style=" stroke:none;fill-rule:nonzero;fill:rgb(22.745098%,22.745098%,22.745098%);fill-opacity:1;" d="M 21.199219 2.078125 L 22 2.078125 C 22.132812 2.078125 22.238281 2.1875 22.238281 2.320312 L 22.238281 3.921875 C 22.238281 4.050781 22.132812 4.160156 22 4.160156 L 21.199219 4.160156 C 21.066406 4.160156 20.960938 4.050781 20.960938 3.921875 L 20.960938 2.320312 C 20.960938 2.1875 21.066406 2.078125 21.199219 2.078125 Z M 21.199219 2.078125 "/>
<path style=" stroke:none;fill-rule:nonzero;fill:rgb(22.745098%,22.745098%,22.745098%);fill-opacity:1;" d="M 21.199219 10.238281 L 22 10.238281 C 22.132812 10.238281 22.238281 10.347656 22.238281 10.480469 L 22.238281 12.078125 C 22.238281 12.210938 22.132812 12.320312 22 12.320312 L 21.199219 12.320312 C 21.066406 12.320312 20.960938 12.210938 20.960938 12.078125 L 20.960938 10.480469 C 20.960938 10.347656 21.066406 10.238281 21.199219 10.238281 Z M 21.199219 10.238281 "/>
<path style=" stroke:none;fill-rule:nonzero;fill:rgb(22.745098%,22.745098%,22.745098%);fill-opacity:1;" d="M 16.71875 6.558594 L 18.320312 6.558594 C 18.453125 6.558594 18.558594 6.667969 18.558594 6.800781 L 18.558594 7.601562 C 18.558594 7.734375 18.453125 7.839844 18.320312 7.839844 L 16.71875 7.839844 C 16.585938 7.839844 16.480469 7.734375 16.480469 7.601562 L 16.480469 6.800781 C 16.480469 6.667969 16.585938 6.558594 16.71875 6.558594 Z M 16.71875 6.558594 "/>
<path style=" stroke:none;fill-rule:nonzero;fill:rgb(22.745098%,22.745098%,22.745098%);fill-opacity:1;" d="M 24.878906 6.558594 L 26.480469 6.558594 C 26.613281 6.558594 26.71875 6.667969 26.71875 6.800781 L 26.71875 7.601562 C 26.71875 7.734375 26.613281 7.839844 26.480469 7.839844 L 24.878906 7.839844 C 24.746094 7.839844 24.640625 7.734375 24.640625 7.601562 L 24.640625 6.800781 C 24.640625 6.667969 24.746094 6.558594 24.878906 6.558594 Z M 24.878906 6.558594 "/>
<path style=" stroke:none;fill-rule:nonzero;fill:rgb(22.745098%,22.745098%,22.745098%);fill-opacity:1;" d="M 24.9375 3.296875 L 25.503906 3.863281 C 25.597656 3.957031 25.597656 4.109375 25.503906 4.203125 L 24.371094 5.332031 C 24.277344 5.425781 24.125 5.425781 24.03125 5.332031 L 23.464844 4.765625 C 23.371094 4.671875 23.371094 4.523438 23.464844 4.429688 L 24.597656 3.296875 C 24.691406 3.203125 24.84375 3.203125 24.9375 3.296875 Z M 24.9375 3.296875 "/>
<path style=" stroke:none;fill-rule:nonzero;fill:rgb(22.745098%,22.745098%,22.745098%);fill-opacity:1;" d="M 19.167969 9.066406 L 19.734375 9.632812 C 19.828125 9.726562 19.828125 9.878906 19.734375 9.972656 L 18.601562 11.101562 C 18.507812 11.195312 18.355469 11.195312 18.261719 11.101562 L 17.695312 10.539062 C 17.601562 10.445312 17.601562 10.292969 17.695312 10.199219 L 18.828125 9.066406 C 18.921875 8.972656 19.074219 8.972656 19.167969 9.066406 Z M 19.167969 9.066406 "/>
<path style=" stroke:none;fill-rule:nonzero;fill:rgb(22.745098%,22.745098%,22.745098%);fill-opacity:1;" d="M 18.601562 3.296875 L 19.734375 4.429688 C 19.828125 4.523438 19.828125 4.671875 19.734375 4.765625 L 19.167969 5.332031 C 19.074219 5.425781 18.921875 5.425781 18.828125 5.332031 L 17.695312 4.203125 C 17.601562 4.109375 17.601562 3.957031 17.695312 3.863281 L 18.261719 3.296875 C 18.355469 3.203125 18.507812 3.203125 18.601562 3.296875 Z M 18.601562 3.296875 "/>
<path style=" stroke:none;fill-rule:nonzero;fill:rgb(22.745098%,22.745098%,22.745098%);fill-opacity:1;" d="M 24.371094 9.066406 L 25.503906 10.199219 C 25.597656 10.292969 25.597656 10.445312 25.503906 10.539062 L 24.9375 11.101562 C 24.84375 11.195312 24.691406 11.195312 24.597656 11.101562 L 23.464844 9.972656 C 23.371094 9.878906 23.371094 9.726562 23.464844 9.632812 L 24.03125 9.066406 C 24.125 8.972656 24.277344 8.972656 24.371094 9.066406 Z M 24.371094 9.066406 "/>
<path style=" stroke:none;fill-rule:nonzero;fill:rgb(48.235294%,65.490198%,81.960785%);fill-opacity:1;" d="M 11.679688 15.199219 C 11.679688 13.609375 10.390625 12.320312 8.800781 12.320312 C 7.210938 12.320312 5.921875 13.609375 5.921875 15.199219 C 5.921875 16.789062 7.210938 18.078125 8.800781 18.078125 C 10.390625 18.078125 11.679688 16.789062 11.679688 15.199219 Z M 11.679688 15.199219 "/>
<path style=" stroke:none;fill-rule:nonzero;fill:rgb(100%,100%,100%);fill-opacity:1;" d="M 9.921875 15.199219 C 9.921875 14.582031 9.417969 14.078125 8.800781 14.078125 C 8.179688 14.078125 7.679688 14.582031 7.679688 15.199219 C 7.679688 15.820312 8.179688 16.320312 8.800781 16.320312 C 9.417969 16.320312 9.921875 15.820312 9.921875 15.199219 Z M 9.921875 15.199219 "/>
<path style=" stroke:none;fill-rule:nonzero;fill:rgb(48.235294%,65.490198%,81.960785%);fill-opacity:1;" d="M 8.480469 11.519531 L 9.121094 11.519531 C 9.207031 11.519531 9.28125 11.589844 9.28125 11.679688 L 9.28125 12.960938 C 9.28125 13.046875 9.207031 13.121094 9.121094 13.121094 L 8.480469 13.121094 C 8.390625 13.121094 8.320312 13.046875 8.320312 12.960938 L 8.320312 11.679688 C 8.320312 11.589844 8.390625 11.519531 8.480469 11.519531 Z M 8.480469 11.519531 "/>
<path style=" stroke:none;fill-rule:nonzero;fill:rgb(48.235294%,65.490198%,81.960785%);fill-opacity:1;" d="M 8.480469 17.28125 L 9.121094 17.28125 C 9.207031 17.28125 9.28125 17.351562 9.28125 17.441406 L 9.28125 18.71875 C 9.28125 18.808594 9.207031 18.878906 9.121094 18.878906 L 8.480469 18.878906 C 8.390625 18.878906 8.320312 18.808594 8.320312 18.71875 L 8.320312 17.441406 C 8.320312 17.351562 8.390625 17.28125 8.480469 17.28125 Z M 8.480469 17.28125 "/>
<path style=" stroke:none;fill-rule:nonzero;fill:rgb(48.235294%,65.490198%,81.960785%);fill-opacity:1;" d="M 5.28125 14.71875 L 6.558594 14.71875 C 6.648438 14.71875 6.71875 14.792969 6.71875 14.878906 L 6.71875 15.519531 C 6.71875 15.609375 6.648438 15.679688 6.558594 15.679688 L 5.28125 15.679688 C 5.191406 15.679688 5.121094 15.609375 5.121094 15.519531 L 5.121094 14.878906 C 5.121094 14.792969 5.191406 14.71875 5.28125 14.71875 Z M 5.28125 14.71875 "/>
<path style=" stroke:none;fill-rule:nonzero;fill:rgb(48.235294%,65.490198%,81.960785%);fill-opacity:1;" d="M 11.039062 14.71875 L 12.320312 14.71875 C 12.410156 14.71875 12.480469 14.792969 12.480469 14.878906 L 12.480469 15.519531 C 12.480469 15.609375 12.410156 15.679688 12.320312 15.679688 L 11.039062 15.679688 C 10.953125 15.679688 10.878906 15.609375 10.878906 15.519531 L 10.878906 14.878906 C 10.878906 14.792969 10.953125 14.71875 11.039062 14.71875 Z M 11.039062 14.71875 "/>
<path style=" stroke:none;fill-rule:nonzero;fill:rgb(48.235294%,65.490198%,81.960785%);fill-opacity:1;" d="M 11.175781 12.371094 L 11.628906 12.824219 C 11.691406 12.886719 11.691406 12.988281 11.628906 13.050781 L 10.722656 13.957031 C 10.660156 14.019531 10.558594 14.019531 10.496094 13.957031 L 10.042969 13.503906 C 9.980469 13.441406 9.980469 13.339844 10.042969 13.277344 L 10.949219 12.371094 C 11.011719 12.308594 11.113281 12.308594 11.175781 12.371094 Z M 11.175781 12.371094 "/>
<path style=" stroke:none;fill-rule:nonzero;fill:rgb(48.235294%,65.490198%,81.960785%);fill-opacity:1;" d="M 7.101562 16.445312 L 7.554688 16.898438 C 7.617188 16.960938 7.617188 17.0625 7.554688 17.125 L 6.652344 18.027344 C 6.589844 18.089844 6.488281 18.089844 6.425781 18.027344 L 5.972656 17.574219 C 5.910156 17.511719 5.910156 17.410156 5.972656 17.347656 L 6.875 16.445312 C 6.9375 16.382812 7.039062 16.382812 7.101562 16.445312 Z M 7.101562 16.445312 "/>
<path style=" stroke:none;fill-rule:nonzero;fill:rgb(48.235294%,65.490198%,81.960785%);fill-opacity:1;" d="M 6.652344 12.371094 L 7.554688 13.277344 C 7.617188 13.339844 7.617188 13.441406 7.554688 13.503906 L 7.101562 13.957031 C 7.039062 14.019531 6.9375 14.019531 6.875 13.957031 L 5.972656 13.050781 C 5.910156 12.988281 5.910156 12.886719 5.972656 12.824219 L 6.425781 12.371094 C 6.488281 12.308594 6.589844 12.308594 6.652344 12.371094 Z M 6.652344 12.371094 "/>
<path style=" stroke:none;fill-rule:nonzero;fill:rgb(48.235294%,65.490198%,81.960785%);fill-opacity:1;" d="M 10.722656 16.445312 L 11.628906 17.347656 C 11.691406 17.410156 11.691406 17.511719 11.628906 17.574219 L 11.175781 18.027344 C 11.113281 18.089844 11.011719 18.089844 10.949219 18.027344 L 10.042969 17.125 C 9.980469 17.0625 9.980469 16.960938 10.042969 16.898438 L 10.496094 16.445312 C 10.558594 16.382812 10.660156 16.382812 10.722656 16.445312 Z M 10.722656 16.445312 "/>
<path style=" stroke:none;fill-rule:nonzero;fill:rgb(17.647059%,52.549022%,34.901962%);fill-opacity:1;" d="M 13.121094 24 C 13.121094 21.171875 10.828125 18.878906 8 18.878906 C 5.171875 18.878906 2.878906 21.171875 2.878906 24 C 2.878906 26.828125 5.171875 29.121094 8 29.121094 C 10.828125 29.121094 13.121094 26.828125 13.121094 24 Z M 13.121094 24 "/>
<path style=" stroke:none;fill-rule:nonzero;fill:rgb(100%,100%,100%);fill-opacity:1;" d="M 10.078125 24 C 10.078125 22.851562 9.148438 21.921875 8 21.921875 C 6.851562 21.921875 5.921875 22.851562 5.921875 24 C 5.921875 25.148438 6.851562 26.078125 8 26.078125 C 9.148438 26.078125 10.078125 25.148438 10.078125 24 Z M 10.078125 24 "/>
<path style=" stroke:none;fill-rule:nonzero;fill:rgb(17.647059%,52.549022%,34.901962%);fill-opacity:1;" d="M 7.519531 17.601562 L 8.480469 17.601562 C 8.65625 17.601562 8.800781 17.742188 8.800781 17.921875 L 8.800781 19.839844 C 8.800781 20.015625 8.65625 20.160156 8.480469 20.160156 L 7.519531 20.160156 C 7.34375 20.160156 7.199219 20.015625 7.199219 19.839844 L 7.199219 17.921875 C 7.199219 17.742188 7.34375 17.601562 7.519531 17.601562 Z M 7.519531 17.601562 "/>
<path style=" stroke:none;fill-rule:nonzero;fill:rgb(17.647059%,52.549022%,34.901962%);fill-opacity:1;" d="M 7.519531 27.839844 L 8.480469 27.839844 C 8.65625 27.839844 8.800781 27.984375 8.800781 28.160156 L 8.800781 30.078125 C 8.800781 30.257812 8.65625 30.398438 8.480469 30.398438 L 7.519531 30.398438 C 7.34375 30.398438 7.199219 30.257812 7.199219 30.078125 L 7.199219 28.160156 C 7.199219 27.984375 7.34375 27.839844 7.519531 27.839844 Z M 7.519531 27.839844 "/>
<path style=" stroke:none;fill-rule:nonzero;fill:rgb(17.647059%,52.549022%,34.901962%);fill-opacity:1;" d="M 1.921875 23.199219 L 3.839844 23.199219 C 4.015625 23.199219 4.160156 23.34375 4.160156 23.519531 L 4.160156 24.480469 C 4.160156 24.65625 4.015625 24.800781 3.839844 24.800781 L 1.921875 24.800781 C 1.742188 24.800781 1.601562 24.65625 1.601562 24.480469 L 1.601562 23.519531 C 1.601562 23.34375 1.742188 23.199219 1.921875 23.199219 Z M 1.921875 23.199219 "/>
<path style=" stroke:none;fill-rule:nonzero;fill:rgb(17.647059%,52.549022%,34.901962%);fill-opacity:1;" d="M 12.160156 23.199219 L 14.078125 23.199219 C 14.257812 23.199219 14.398438 23.34375 14.398438 23.519531 L 14.398438 24.480469 C 14.398438 24.65625 14.257812 24.800781 14.078125 24.800781 L 12.160156 24.800781 C 11.984375 24.800781 11.839844 24.65625 11.839844 24.480469 L 11.839844 23.519531 C 11.839844 23.34375 11.984375 23.199219 12.160156 23.199219 Z M 12.160156 23.199219 "/>
<path style=" stroke:none;fill-rule:nonzero;fill:rgb(17.647059%,52.549022%,34.901962%);fill-opacity:1;" d="M 12.1875 19.136719 L 12.863281 19.8125 C 12.988281 19.9375 12.988281 20.140625 12.863281 20.265625 L 11.507812 21.625 C 11.382812 21.75 11.179688 21.75 11.054688 21.625 L 10.375 20.945312 C 10.25 20.820312 10.25 20.617188 10.375 20.492188 L 11.734375 19.136719 C 11.859375 19.011719 12.0625 19.011719 12.1875 19.136719 Z M 12.1875 19.136719 "/>
<path style=" stroke:none;fill-rule:nonzero;fill:rgb(17.647059%,52.549022%,34.901962%);fill-opacity:1;" d="M 4.945312 26.375 L 5.625 27.054688 C 5.75 27.179688 5.75 27.382812 5.625 27.507812 L 4.265625 28.863281 C 4.140625 28.988281 3.9375 28.988281 3.8125 28.863281 L 3.136719 28.1875 C 3.011719 28.0625 3.011719 27.859375 3.136719 27.734375 L 4.492188 26.375 C 4.617188 26.25 4.820312 26.25 4.945312 26.375 Z M 4.945312 26.375 "/>
<path style=" stroke:none;fill-rule:nonzero;fill:rgb(17.647059%,52.549022%,34.901962%);fill-opacity:1;" d="M 4.265625 19.136719 L 5.625 20.492188 C 5.75 20.617188 5.75 20.820312 5.625 20.945312 L 4.945312 21.625 C 4.820312 21.75 4.617188 21.75 4.492188 21.625 L 3.136719 20.265625 C 3.011719 20.140625 3.011719 19.9375 3.136719 19.8125 L 3.8125 19.136719 C 3.9375 19.011719 4.140625 19.011719 4.265625 19.136719 Z M 4.265625 19.136719 "/>
<path style=" stroke:none;fill-rule:nonzero;fill:rgb(17.647059%,52.549022%,34.901962%);fill-opacity:1;" d="M 11.507812 26.375 L 12.863281 27.734375 C 12.988281 27.859375 12.988281 28.0625 12.863281 28.1875 L 12.1875 28.863281 C 12.0625 28.988281 11.859375 28.988281 11.734375 28.863281 L 10.375 27.507812 C 10.25 27.382812 10.25 27.179688 10.375 27.054688 L 11.054688 26.375 C 11.179688 26.25 11.382812 26.25 11.507812 26.375 Z M 11.507812 26.375 "/>
<path style=" stroke:none;fill-rule:nonzero;fill:rgb(95.686275%,81.568629%,24.705882%);fill-opacity:1;" d="M 24.800781 24.800781 C 24.800781 21.707031 22.292969 19.199219 19.199219 19.199219 C 16.105469 19.199219 13.601562 21.707031 13.601562 24.800781 C 13.601562 27.894531 16.105469 30.398438 19.199219 30.398438 C 22.292969 30.398438 24.800781 27.894531 24.800781 24.800781 Z M 24.800781 24.800781 "/>
<path style=" stroke:none;fill-rule:nonzero;fill:rgb(100%,100%,100%);fill-opacity:1;" d="M 21.441406 24.800781 C 21.441406 23.5625 20.4375 22.558594 19.199219 22.558594 C 17.960938 22.558594 16.960938 23.5625 16.960938 24.800781 C 16.960938 26.039062 17.960938 27.039062 19.199219 27.039062 C 20.4375 27.039062 21.441406 26.039062 21.441406 24.800781 Z M 21.441406 24.800781 "/>
<path style=" stroke:none;fill-rule:nonzero;fill:rgb(95.686275%,81.568629%,24.705882%);fill-opacity:1;" d="M 18.640625 17.761719 L 19.761719 17.761719 C 19.9375 17.761719 20.078125 17.902344 20.078125 18.078125 L 20.078125 20.320312 C 20.078125 20.496094 19.9375 20.640625 19.761719 20.640625 L 18.640625 20.640625 C 18.464844 20.640625 18.320312 20.496094 18.320312 20.320312 L 18.320312 18.078125 C 18.320312 17.902344 18.464844 17.761719 18.640625 17.761719 Z M 18.640625 17.761719 "/>
<path style=" stroke:none;fill-rule:nonzero;fill:rgb(95.686275%,81.568629%,24.705882%);fill-opacity:1;" d="M 18.640625 28.960938 L 19.761719 28.960938 C 19.9375 28.960938 20.078125 29.101562 20.078125 29.28125 L 20.078125 31.519531 C 20.078125 31.695312 19.9375 31.839844 19.761719 31.839844 L 18.640625 31.839844 C 18.464844 31.839844 18.320312 31.695312 18.320312 31.519531 L 18.320312 29.28125 C 18.320312 29.101562 18.464844 28.960938 18.640625 28.960938 Z M 18.640625 28.960938 "/>
<path style=" stroke:none;fill-rule:nonzero;fill:rgb(95.686275%,81.568629%,24.705882%);fill-opacity:1;" d="M 12.480469 23.921875 L 14.71875 23.921875 C 14.898438 23.921875 15.039062 24.0625 15.039062 24.238281 L 15.039062 25.359375 C 15.039062 25.535156 14.898438 25.679688 14.71875 25.679688 L 12.480469 25.679688 C 12.304688 25.679688 12.160156 25.535156 12.160156 25.359375 L 12.160156 24.238281 C 12.160156 24.0625 12.304688 23.921875 12.480469 23.921875 Z M 12.480469 23.921875 "/>
<path style=" stroke:none;fill-rule:nonzero;fill:rgb(95.686275%,81.568629%,24.705882%);fill-opacity:1;" d="M 23.679688 23.921875 L 25.921875 23.921875 C 26.097656 23.921875 26.238281 24.0625 26.238281 24.238281 L 26.238281 25.359375 C 26.238281 25.535156 26.097656 25.679688 25.921875 25.679688 L 23.679688 25.679688 C 23.503906 25.679688 23.359375 25.535156 23.359375 25.359375 L 23.359375 24.238281 C 23.359375 24.0625 23.503906 23.921875 23.679688 23.921875 Z M 23.679688 23.921875 "/>
<path style=" stroke:none;fill-rule:nonzero;fill:rgb(95.686275%,81.568629%,24.705882%);fill-opacity:1;" d="M 23.78125 19.425781 L 24.574219 20.21875 C 24.699219 20.34375 24.699219 20.546875 24.574219 20.671875 L 22.988281 22.253906 C 22.863281 22.378906 22.664062 22.378906 22.539062 22.253906 L 21.746094 21.460938 C 21.621094 21.335938 21.621094 21.136719 21.746094 21.011719 L 23.328125 19.425781 C 23.453125 19.300781 23.65625 19.300781 23.78125 19.425781 Z M 23.78125 19.425781 "/>
<path style=" stroke:none;fill-rule:nonzero;fill:rgb(95.686275%,81.568629%,24.705882%);fill-opacity:1;" d="M 15.863281 27.34375 L 16.65625 28.136719 C 16.78125 28.261719 16.78125 28.464844 16.65625 28.589844 L 15.070312 30.175781 C 14.945312 30.300781 14.742188 30.300781 14.617188 30.175781 L 13.824219 29.382812 C 13.699219 29.257812 13.699219 29.054688 13.824219 28.929688 L 15.410156 27.34375 C 15.535156 27.21875 15.738281 27.21875 15.863281 27.34375 Z M 15.863281 27.34375 "/>
<path style=" stroke:none;fill-rule:nonzero;fill:rgb(95.686275%,81.568629%,24.705882%);fill-opacity:1;" d="M 15.070312 19.425781 L 16.65625 21.011719 C 16.78125 21.136719 16.78125 21.335938 16.65625 21.460938 L 15.863281 22.253906 C 15.738281 22.378906 15.535156 22.378906 15.410156 22.253906 L 13.824219 20.671875 C 13.699219 20.546875 13.699219 20.34375 13.824219 20.21875 L 14.617188 19.425781 C 14.742188 19.300781 14.945312 19.300781 15.070312 19.425781 Z M 15.070312 19.425781 "/>
<path style=" stroke:none;fill-rule:nonzero;fill:rgb(95.686275%,81.568629%,24.705882%);fill-opacity:1;" d="M 22.988281 27.34375 L 24.574219 28.929688 C 24.699219 29.054688 24.699219 29.257812 24.574219 29.382812 L 23.78125 30.175781 C 23.65625 30.300781 23.453125 30.300781 23.328125 30.175781 L 21.746094 28.589844 C 21.621094 28.464844 21.621094 28.261719 21.746094 28.136719 L 22.539062 27.34375 C 22.664062 27.21875 22.863281 27.21875 22.988281 27.34375 Z M 22.988281 27.34375 "/>
</g>
</svg>
