<svg xmlns="http://www.w3.org/2000/svg" viewBox="0 0 200 200">
  <!-- Main center gear - Teal outline -->
  <g transform="translate(100, 70)">
    <circle cx="0" cy="0" r="32" fill="white" stroke="#5a7a7a" stroke-width="6"/>
    <circle cx="0" cy="0" r="13" fill="white" stroke="#5a7a7a" stroke-width="6"/>
    <rect x="-5" y="-40" width="10" height="16" fill="#5a7a7a" rx="2"/>
    <rect x="-5" y="24" width="10" height="16" fill="#5a7a7a" rx="2"/>
    <rect x="-40" y="-5" width="16" height="10" fill="#5a7a7a" rx="2"/>
    <rect x="24" y="-5" width="16" height="10" fill="#5a7a7a" rx="2"/>
    <g transform="rotate(45)">
      <rect x="-5" y="-40" width="10" height="16" fill="#5a7a7a" rx="2"/>
      <rect x="-5" y="24" width="10" height="16" fill="#5a7a7a" rx="2"/>
      <rect x="-40" y="-5" width="16" height="10" fill="#5a7a7a" rx="2"/>
      <rect x="24" y="-5" width="16" height="10" fill="#5a7a7a" rx="2"/>
    </g>
  </g>
  
  <!-- Upper right gear - Dark outline -->
  <g transform="translate(135, 45)">
    <circle cx="0" cy="0" r="26" fill="white" stroke="#3a3a3a" stroke-width="5"/>
    <circle cx="0" cy="0" r="11" fill="white" stroke="#3a3a3a" stroke-width="5"/>
    <rect x="-4" y="-32" width="8" height="13" fill="#3a3a3a" rx="1.5"/>
    <rect x="-4" y="19" width="8" height="13" fill="#3a3a3a" rx="1.5"/>
    <rect x="-32" y="-4" width="13" height="8" fill="#3a3a3a" rx="1.5"/>
    <rect x="19" y="-4" width="13" height="8" fill="#3a3a3a" rx="1.5"/>
    <g transform="rotate(45)">
      <rect x="-4" y="-32" width="8" height="13" fill="#3a3a3a" rx="1.5"/>
      <rect x="-4" y="19" width="8" height="13" fill="#3a3a3a" rx="1.5"/>
      <rect x="-32" y="-4" width="13" height="8" fill="#3a3a3a" rx="1.5"/>
      <rect x="19" y="-4" width="13" height="8" fill="#3a3a3a" rx="1.5"/>
    </g>
  </g>
  
  <!-- Small blue gear (top left) -->
  <g transform="translate(55, 95)">
    <circle cx="0" cy="0" r="18" fill="#7ba7d1"/>
    <circle cx="0" cy="0" r="7" fill="white"/>
    <rect x="-3" y="-23" width="6" height="10" fill="#7ba7d1" rx="1"/>
    <rect x="-3" y="13" width="6" height="10" fill="#7ba7d1" rx="1"/>
    <rect x="-23" y="-3" width="10" height="6" fill="#7ba7d1" rx="1"/>
    <rect x="13" y="-3" width="10" height="6" fill="#7ba7d1" rx="1"/>
    <g transform="rotate(45)">
      <rect x="-3" y="-23" width="6" height="10" fill="#7ba7d1" rx="1"/>
      <rect x="-3" y="13" width="6" height="10" fill="#7ba7d1" rx="1"/>
      <rect x="-23" y="-3" width="10" height="6" fill="#7ba7d1" rx="1"/>
      <rect x="13" y="-3" width="10" height="6" fill="#7ba7d1" rx="1"/>
    </g>
  </g>
  
  <!-- Large green gear (bottom left) -->
  <g transform="translate(50, 150)">
    <circle cx="0" cy="0" r="32" fill="#2d8659"/>
    <circle cx="0" cy="0" r="13" fill="white"/>
    <rect x="-5" y="-40" width="10" height="16" fill="#2d8659" rx="2"/>
    <rect x="-5" y="24" width="10" height="16" fill="#2d8659" rx="2"/>
    <rect x="-40" y="-5" width="16" height="10" fill="#2d8659" rx="2"/>
    <rect x="24" y="-5" width="16" height="10" fill="#2d8659" rx="2"/>
    <g transform="rotate(45)">
      <rect x="-5" y="-40" width="10" height="16" fill="#2d8659" rx="2"/>
      <rect x="-5" y="24" width="10" height="16" fill="#2d8659" rx="2"/>
      <rect x="-40" y="-5" width="16" height="10" fill="#2d8659" rx="2"/>
      <rect x="24" y="-5" width="16" height="10" fill="#2d8659" rx="2"/>
    </g>
  </g>
  
  <!-- Large yellow gear (bottom center-right) -->
  <g transform="translate(120, 155)">
    <circle cx="0" cy="0" r="35" fill="#f4d03f"/>
    <circle cx="0" cy="0" r="14" fill="white"/>
    <rect x="-5.5" y="-44" width="11" height="18" fill="#f4d03f" rx="2"/>
    <rect x="-5.5" y="26" width="11" height="18" fill="#f4d03f" rx="2"/>
    <rect x="-44" y="-5.5" width="18" height="11" fill="#f4d03f" rx="2"/>
    <rect x="26" y="-5.5" width="18" height="11" fill="#f4d03f" rx="2"/>
    <g transform="rotate(45)">
      <rect x="-5.5" y="-44" width="11" height="18" fill="#f4d03f" rx="2"/>
      <rect x="-5.5" y="26" width="11" height="18" fill="#f4d03f" rx="2"/>
      <rect x="-44" y="-5.5" width="18" height="11" fill="#f4d03f" rx="2"/>
      <rect x="26" y="-5.5" width="18" height="11" fill="#f4d03f" rx="2"/>
    </g>
  </g>
</svg>
